# xmcd
#
# Track frame offsets: 
#        183
#        20978
#        38958
#
# Disc length: 809 seconds
#
# Revision: 0
# Processed by: cddbd v1.5.2PL0 Copyright (c) Steve Scherf et al.
# Submitted via: ExactAudioCopyFreeDBPlugin 1.0
#
DISCID=23032703
DTITLE=The Jeff Healey Band - I Think I Love You Too Much
DYEAR=1990
DGENRE=Blues
TTITLE0=I Think I Love You Too Much (Single Edit)
TTITLE1=Something To Hold On To
TTITLE2=Roadhouse Blues
EXTD=
EXTT0=
EXTT1=
EXTT2=
PLAYORDER=
